<svg width="137" height="18" viewBox="0 0 137 18" fill="none" xmlns="http://www.w3.org/2000/svg">
<path d="M6.99415 13.9339C5.98728 13.9339 5.05833 13.7806 4.20728 13.4739C3.35624 13.1673 2.61307 12.7358 1.97778 12.1794C1.35448 11.6116 0.869025 10.9529 0.521415 10.2034C0.173805 9.45391 0 8.63059 0 7.73347C0 6.83634 0.173805 6.01303 0.521415 5.26353C0.869025 4.51403 1.35448 3.86106 1.97778 3.30461C2.61307 2.73681 3.35624 2.2996 4.20728 1.99299C5.05833 1.68637 5.98728 1.53307 6.99415 1.53307C8.01301 1.53307 8.94197 1.68637 9.78103 1.99299C10.6321 2.2996 11.3692 2.73681 11.9925 3.30461C12.6158 3.86106 13.1013 4.51403 13.4489 5.26353C13.8085 6.01303 13.9883 6.83634 13.9883 7.73347C13.9883 8.63059 13.8085 9.45959 13.4489 10.2204C13.1013 10.9699 12.6158 11.6229 11.9925 12.1794C11.3692 12.7358 10.6321 13.1673 9.78103 13.4739C8.94197 13.7806 8.01301 13.9339 6.99415 13.9339ZM6.99415 11.1403C7.47362 11.1403 7.91712 11.0608 8.32466 10.9018C8.74419 10.7428 9.10379 10.5157 9.40345 10.2204C9.7151 9.91383 9.95483 9.55044 10.1226 9.13026C10.3024 8.71009 10.3923 8.24449 10.3923 7.73347C10.3923 7.21109 10.3024 6.74549 10.1226 6.33667C9.95483 5.9165 9.7151 5.55878 9.40345 5.26353C9.10379 4.95691 8.74419 4.72412 8.32466 4.56513C7.91712 4.40615 7.47362 4.32665 6.99415 4.32665C6.51469 4.32665 6.0652 4.40615 5.64567 4.56513C5.23812 4.72412 4.87853 4.95691 4.56688 5.26353C4.26721 5.55878 4.02748 5.9165 3.84768 6.33667C3.67987 6.74549 3.59597 7.21109 3.59597 7.73347C3.59597 8.24449 3.67987 8.71009 3.84768 9.13026C4.02748 9.55044 4.26721 9.91383 4.56688 10.2204C4.87853 10.5157 5.23812 10.7428 5.64567 10.9018C6.0652 11.0608 6.51469 11.1403 6.99415 11.1403Z" fill="black"/>
<path d="M15.6911 13.6954V1.05611H19.1072V13.6954H15.6911Z" fill="black"/>
<path d="M34.0211 4.30962C34.7762 4.30962 35.4475 4.45725 36.0348 4.7525C36.6341 5.03641 37.1016 5.47929 37.4372 6.08116C37.7849 6.68303 37.9587 7.46092 37.9587 8.41483V13.6954H34.5425V8.94289C34.5425 8.28424 34.4106 7.80728 34.1469 7.51202C33.8832 7.20541 33.5236 7.0521 33.0681 7.0521C32.7445 7.0521 32.4508 7.12592 32.1871 7.27355C31.9234 7.42118 31.7197 7.6483 31.5758 7.95491C31.432 8.25017 31.3601 8.63627 31.3601 9.11323V13.6954H27.9439V8.94289C27.9439 8.28424 27.812 7.80728 27.5483 7.51202C27.2966 7.20541 26.937 7.0521 26.4695 7.0521C26.1339 7.0521 25.8343 7.12592 25.5706 7.27355C25.3188 7.42118 25.1151 7.6483 24.9592 7.95491C24.8154 8.25017 24.7435 8.63627 24.7435 9.11323V13.6954H21.3273V4.46293H24.5817V7.03507L23.9344 6.30261C24.294 5.64395 24.7854 5.14997 25.4087 4.82064C26.032 4.47996 26.7273 4.30962 27.4944 4.30962C28.3694 4.30962 29.1366 4.52538 29.7958 4.95691C30.4671 5.37709 30.9166 6.03574 31.1443 6.93287L30.0296 6.71142C30.3772 5.96192 30.8986 5.37709 31.5938 4.95691C32.301 4.52538 33.1101 4.30962 34.0211 4.30962Z" fill="black"/>
<path d="M46.0662 13.6954V11.9749L45.8324 11.5491V8.38076C45.8324 7.86974 45.6646 7.47796 45.329 7.20541C45.0053 6.92151 44.4839 6.77956 43.7647 6.77956C43.2973 6.77956 42.8238 6.85337 42.3443 7.001C41.8649 7.13727 41.4573 7.33033 41.1217 7.58016L39.971 5.38277C40.5224 5.04208 41.1816 4.7809 41.9488 4.5992C42.7279 4.40615 43.501 4.30962 44.2682 4.30962C45.8504 4.30962 47.073 4.65598 47.9361 5.3487C48.8111 6.03006 49.2486 7.10321 49.2486 8.56814V13.6954H46.0662ZM43.1894 13.8487C42.4103 13.8487 41.751 13.7238 41.2116 13.4739C40.6722 13.2241 40.2587 12.8834 39.971 12.4519C39.6953 12.0204 39.5575 11.5377 39.5575 11.004C39.5575 10.4362 39.7073 9.9479 40.007 9.53908C40.3186 9.1189 40.7921 8.80094 41.4274 8.58517C42.0626 8.35805 42.8837 8.24449 43.8906 8.24449H46.192V9.93086H44.3581C43.8067 9.93086 43.4171 10.016 43.1894 10.1864C42.9736 10.3567 42.8657 10.5838 42.8657 10.8677C42.8657 11.1516 42.9796 11.3788 43.2074 11.5491C43.4351 11.7194 43.7468 11.8046 44.1423 11.8046C44.5139 11.8046 44.8495 11.7194 45.1492 11.5491C45.4608 11.3674 45.6886 11.0949 45.8324 10.7315L46.2999 11.9238C46.1201 12.5598 45.7665 13.0424 45.2391 13.3717C44.7237 13.6897 44.0404 13.8487 43.1894 13.8487Z" fill="black"/>
<path d="M51.4049 13.6954V1.05611H54.8211V13.6954H51.4049Z" fill="black"/>
<path d="M57.0412 13.6954V4.46293H60.4573V13.6954H57.0412ZM58.7492 3.44088C58.1259 3.44088 57.6225 3.27622 57.2389 2.94689C56.8554 2.61757 56.6636 2.20875 56.6636 1.72044C56.6636 1.23213 56.8554 0.823313 57.2389 0.493988C57.6225 0.164663 58.1259 0 58.7492 0C59.3725 0 59.876 0.158985 60.2595 0.476954C60.6431 0.783567 60.8349 1.18103 60.8349 1.66934C60.8349 2.18036 60.6431 2.60621 60.2595 2.94689C59.888 3.27622 59.3845 3.44088 58.7492 3.44088Z" fill="black"/>
<path d="M66.8487 13.8487C65.9737 13.8487 65.1706 13.6556 64.4394 13.2695C63.7083 12.8834 63.1269 12.3327 62.6954 11.6172C62.2759 10.9018 62.0661 10.0558 62.0661 9.07916C62.0661 8.10254 62.2759 7.26219 62.6954 6.55812C63.1269 5.84269 63.7083 5.29192 64.4394 4.90581C65.1706 4.50835 65.9737 4.30962 66.8487 4.30962C67.7357 4.30962 68.4669 4.47996 69.0423 4.82064C69.6176 5.16132 70.0491 5.6837 70.3368 6.38778C70.6245 7.08049 70.7683 7.97762 70.7683 9.07916C70.7683 10.1693 70.6125 11.0665 70.3009 11.7705C70.0012 12.4633 69.5577 12.9856 68.9704 13.3377C68.395 13.6784 67.6878 13.8487 66.8487 13.8487ZM67.5679 11.2766C67.9515 11.2766 68.2931 11.1914 68.5928 11.021C68.9044 10.8507 69.1502 10.6009 69.33 10.2715C69.5217 9.94222 69.6176 9.54476 69.6176 9.07916C69.6176 8.61356 69.5217 8.2161 69.33 7.88677C69.1502 7.55745 68.9044 7.30762 68.5928 7.13727C68.2931 6.96693 67.9515 6.88176 67.5679 6.88176C67.1844 6.88176 66.8367 6.96693 66.5251 7.13727C66.2254 7.30762 65.9797 7.55745 65.7879 7.88677C65.6081 8.2161 65.5182 8.61356 65.5182 9.07916C65.5182 9.54476 65.6081 9.94222 65.7879 10.2715C65.9797 10.6009 66.2254 10.8507 66.5251 11.021C66.8367 11.1914 67.1844 11.2766 67.5679 11.2766ZM69.5637 17V12.1453L69.7435 9.07916L69.7255 6.03006V4.46293H72.9799V17H69.5637Z" fill="black"/>
<path d="M84.9963 13.9339C83.9654 13.9339 82.9706 13.8146 82.0116 13.5762C81.0647 13.3263 80.2916 13.0084 79.6922 12.6222L80.8609 10.1353C81.4243 10.476 82.0716 10.7599 82.8027 10.987C83.5459 11.2027 84.2831 11.3106 85.0143 11.3106C85.5057 11.3106 85.9013 11.2709 86.2009 11.1914C86.5006 11.1005 86.7164 10.987 86.8482 10.8507C86.992 10.7031 87.064 10.5327 87.064 10.3397C87.064 10.0671 86.9321 9.85137 86.6684 9.69238C86.4047 9.5334 86.0631 9.40281 85.6436 9.3006C85.224 9.1984 84.7566 9.09619 84.2411 8.99399C83.7377 8.89178 83.2283 8.76119 82.7128 8.6022C82.2094 8.44322 81.7479 8.23881 81.3284 7.98898C80.9089 7.72779 80.5673 7.39279 80.3035 6.98397C80.0398 6.56379 79.908 6.03574 79.908 5.3998C79.908 4.68437 80.1118 4.03707 80.5193 3.45792C80.9388 2.87876 81.5621 2.41316 82.3892 2.06112C83.2163 1.70908 84.2471 1.53307 85.4817 1.53307C86.3088 1.53307 87.1179 1.62391 87.909 1.80561C88.7121 1.97595 89.4253 2.23146 90.0486 2.57214L88.9519 5.07615C88.3525 4.76954 87.7592 4.54242 87.1718 4.39479C86.5845 4.23581 86.0151 4.15631 85.4638 4.15631C84.9723 4.15631 84.5768 4.20742 84.2771 4.30962C83.9774 4.40047 83.7617 4.52538 83.6298 4.68437C83.498 4.84335 83.432 5.02505 83.432 5.22946C83.432 5.49065 83.5579 5.70073 83.8096 5.85972C84.0733 6.00735 84.4149 6.13226 84.8345 6.23447C85.266 6.32532 85.7335 6.42184 86.2369 6.52405C86.7523 6.62625 87.2617 6.75685 87.7652 6.91583C88.2806 7.06346 88.7481 7.26787 89.1676 7.52906C89.5871 7.77889 89.9228 8.11389 90.1745 8.53407C90.4382 8.94289 90.57 9.45959 90.57 10.0842C90.57 10.7769 90.3603 11.4185 89.9407 12.009C89.5332 12.5882 88.9159 13.0538 88.0888 13.4058C87.2737 13.7578 86.2429 13.9339 84.9963 13.9339Z" fill="black"/>
<path d="M98.004 13.6954V11.9749L97.7702 11.5491V8.38076C97.7702 7.86974 97.6024 7.47796 97.2668 7.20541C96.9432 6.92151 96.4218 6.77956 95.7026 6.77956C95.2351 6.77956 94.7616 6.85337 94.2822 7.001C93.8027 7.13727 93.3952 7.33033 93.0595 7.58016L91.9088 5.38277C92.4602 5.04208 93.1195 4.7809 93.8866 4.5992C94.6657 4.40615 95.4389 4.30962 96.206 4.30962C97.7882 4.30962 99.0109 4.65598 99.8739 5.3487C100.749 6.03006 101.186 7.10321 101.186 8.56814V13.6954H98.004ZM95.1272 13.8487C94.3481 13.8487 93.6888 13.7238 93.1494 13.4739C92.61 13.2241 92.1965 12.8834 91.9088 12.4519C91.6331 12.0204 91.4953 11.5377 91.4953 11.004C91.4953 10.4362 91.6451 9.9479 91.9448 9.53908C92.2564 9.1189 92.7299 8.80094 93.3652 8.58517C94.0005 8.35805 94.8216 8.24449 95.8284 8.24449H98.1299V9.93086H96.2959C95.7445 9.93086 95.355 10.016 95.1272 10.1864C94.9115 10.3567 94.8036 10.5838 94.8036 10.8677C94.8036 11.1516 94.9174 11.3788 95.1452 11.5491C95.3729 11.7194 95.6846 11.8046 96.0801 11.8046C96.4517 11.8046 96.7874 11.7194 97.087 11.5491C97.3987 11.3674 97.6264 11.0949 97.7702 10.7315L98.2377 11.9238C98.0579 12.5598 97.7043 13.0424 97.1769 13.3717C96.6615 13.6897 95.9783 13.8487 95.1272 13.8487Z" fill="black"/>
<path d="M105.882 13.6954L101.873 4.46293H105.379L108.579 12.1794H106.817L110.179 4.46293H113.434L109.406 13.6954H105.882Z" fill="black"/>
<path d="M118.297 13.8487C117.41 13.8487 116.601 13.6556 115.869 13.2695C115.15 12.8721 114.575 12.3213 114.143 11.6172C113.712 10.9018 113.496 10.0501 113.496 9.06212C113.496 8.0855 113.712 7.24516 114.143 6.54108C114.575 5.82565 115.15 5.27488 115.869 4.88878C116.601 4.50267 117.41 4.30962 118.297 4.30962C119.136 4.30962 119.843 4.47996 120.418 4.82064C121.006 5.16132 121.449 5.6837 121.749 6.38778C122.048 7.09185 122.198 7.9833 122.198 9.06212C122.198 10.1637 122.054 11.0665 121.767 11.7705C121.479 12.4746 121.048 12.997 120.472 13.3377C119.897 13.6784 119.172 13.8487 118.297 13.8487ZM119.016 11.2766C119.399 11.2766 119.741 11.1914 120.041 11.021C120.352 10.8507 120.598 10.6009 120.778 10.2715C120.958 9.93086 121.048 9.52772 121.048 9.06212C121.048 8.59653 120.958 8.20474 120.778 7.88677C120.598 7.55745 120.352 7.30762 120.041 7.13727C119.741 6.96693 119.399 6.88176 119.016 6.88176C118.62 6.88176 118.267 6.96693 117.955 7.13727C117.655 7.30762 117.416 7.55745 117.236 7.88677C117.056 8.20474 116.966 8.59653 116.966 9.06212C116.966 9.52772 117.056 9.93086 117.236 10.2715C117.416 10.6009 117.655 10.8507 117.955 11.021C118.267 11.1914 118.62 11.2766 119.016 11.2766ZM121.155 13.6954V12.1112L121.173 9.06212L120.994 6.01303V1.05611H124.41V13.6954H121.155Z" fill="black"/>
<path d="M131.498 13.8487C130.431 13.8487 129.484 13.6443 128.657 13.2355C127.83 12.8267 127.177 12.2645 126.698 11.5491C126.23 10.8223 125.996 9.99332 125.996 9.06212C125.996 8.13093 126.23 7.30762 126.698 6.59218C127.177 5.87675 127.83 5.32031 128.657 4.92285C129.484 4.51403 130.431 4.30962 131.498 4.30962C132.565 4.30962 133.512 4.51403 134.339 4.92285C135.178 5.32031 135.831 5.87675 136.299 6.59218C136.766 7.30762 137 8.13093 137 9.06212C137 9.99332 136.766 10.8223 136.299 11.5491C135.831 12.2645 135.178 12.8267 134.339 13.2355C133.512 13.6443 132.565 13.8487 131.498 13.8487ZM131.498 11.2766C131.894 11.2766 132.241 11.1914 132.541 11.021C132.853 10.8507 133.098 10.6009 133.278 10.2715C133.458 9.93086 133.548 9.52772 133.548 9.06212C133.548 8.59653 133.458 8.20474 133.278 7.88677C133.098 7.55745 132.853 7.30762 132.541 7.13727C132.241 6.96693 131.894 6.88176 131.498 6.88176C131.115 6.88176 130.767 6.96693 130.455 7.13727C130.156 7.30762 129.91 7.55745 129.718 7.88677C129.538 8.20474 129.448 8.59653 129.448 9.06212C129.448 9.52772 129.538 9.93086 129.718 10.2715C129.91 10.6009 130.156 10.8507 130.455 11.021C130.767 11.1914 131.115 11.2766 131.498 11.2766Z" fill="black"/>
<path d="M1 16.0703L65.9272 16.0703" stroke="#2DA55F" stroke-width="2" stroke-linecap="round"/>
</svg>
